<mxfile host="app.diagrams.net" modified="2024-03-09T10:18:31.035Z" agent="Mozilla/5.0 (Windows NT 10.0; Win64; x64) AppleWebKit/537.36 (KHTML, like Gecko) Chrome/122.0.0.0 Safari/537.36" etag="mjPJw_66tSZRMnPmtNx5" version="23.1.7" type="device">
  <diagram name="Page-1" id="GGg3Cw50F74KCYQPh45D">
    <mxGraphModel dx="1560" dy="669" grid="1" gridSize="10" guides="1" tooltips="1" connect="1" arrows="1" fold="1" page="1" pageScale="1" pageWidth="827" pageHeight="1169" math="0" shadow="0">
      <root>
        <mxCell id="0" />
        <mxCell id="1" parent="0" />
        <mxCell id="qcht7zD_EGoAaBPKeqV6-1" value="&lt;b&gt;&lt;i&gt;user&amp;nbsp; with COACH privilege&lt;/i&gt;&lt;/b&gt;" style="rounded=0;whiteSpace=wrap;html=1;" vertex="1" parent="1">
          <mxGeometry x="40" y="90" width="120" height="60" as="geometry" />
        </mxCell>
        <mxCell id="qcht7zD_EGoAaBPKeqV6-2" value="" style="endArrow=none;html=1;rounded=0;entryX=0.5;entryY=1;entryDx=0;entryDy=0;" edge="1" parent="1" target="qcht7zD_EGoAaBPKeqV6-1">
          <mxGeometry width="50" height="50" relative="1" as="geometry">
            <mxPoint x="100" y="440" as="sourcePoint" />
            <mxPoint x="130" y="180" as="targetPoint" />
          </mxGeometry>
        </mxCell>
        <mxCell id="qcht7zD_EGoAaBPKeqV6-3" value="&lt;b&gt;&lt;i&gt;coach-app&lt;/i&gt;&lt;/b&gt;" style="rounded=0;whiteSpace=wrap;html=1;" vertex="1" parent="1">
          <mxGeometry x="200" y="90" width="120" height="60" as="geometry" />
        </mxCell>
        <mxCell id="qcht7zD_EGoAaBPKeqV6-4" value="" style="endArrow=none;html=1;rounded=0;entryX=0.5;entryY=1;entryDx=0;entryDy=0;" edge="1" parent="1">
          <mxGeometry width="50" height="50" relative="1" as="geometry">
            <mxPoint x="259.5" y="440" as="sourcePoint" />
            <mxPoint x="259.5" y="150" as="targetPoint" />
          </mxGeometry>
        </mxCell>
        <mxCell id="qcht7zD_EGoAaBPKeqV6-5" value="" style="endArrow=classic;html=1;rounded=0;" edge="1" parent="1">
          <mxGeometry width="50" height="50" relative="1" as="geometry">
            <mxPoint x="100" y="230" as="sourcePoint" />
            <mxPoint x="260" y="230" as="targetPoint" />
          </mxGeometry>
        </mxCell>
        <mxCell id="qcht7zD_EGoAaBPKeqV6-6" value="&lt;b&gt;user trying to access application&lt;/b&gt;" style="text;html=1;align=center;verticalAlign=middle;whiteSpace=wrap;rounded=0;" vertex="1" parent="1">
          <mxGeometry x="130" y="190" width="110" height="30" as="geometry" />
        </mxCell>
        <mxCell id="qcht7zD_EGoAaBPKeqV6-7" value="&lt;b&gt;&lt;i&gt;Keycloak AuthZ server&lt;/i&gt;&lt;/b&gt;" style="rounded=0;whiteSpace=wrap;html=1;" vertex="1" parent="1">
          <mxGeometry x="360" y="90" width="120" height="60" as="geometry" />
        </mxCell>
        <mxCell id="qcht7zD_EGoAaBPKeqV6-8" value="" style="endArrow=none;html=1;rounded=0;entryX=0.5;entryY=1;entryDx=0;entryDy=0;" edge="1" parent="1">
          <mxGeometry width="50" height="50" relative="1" as="geometry">
            <mxPoint x="419.5" y="440" as="sourcePoint" />
            <mxPoint x="419.5" y="150" as="targetPoint" />
          </mxGeometry>
        </mxCell>
        <mxCell id="qcht7zD_EGoAaBPKeqV6-9" value="" style="endArrow=classic;html=1;rounded=0;" edge="1" parent="1">
          <mxGeometry width="50" height="50" relative="1" as="geometry">
            <mxPoint x="260" y="231" as="sourcePoint" />
            <mxPoint x="420" y="231" as="targetPoint" />
          </mxGeometry>
        </mxCell>
        <mxCell id="qcht7zD_EGoAaBPKeqV6-10" value="&lt;b&gt;provide login credentials&lt;/b&gt;" style="text;html=1;align=center;verticalAlign=middle;whiteSpace=wrap;rounded=0;" vertex="1" parent="1">
          <mxGeometry x="280" y="194" width="110" height="30" as="geometry" />
        </mxCell>
        <mxCell id="qcht7zD_EGoAaBPKeqV6-11" value="&lt;b&gt;&lt;i&gt;coach-app&lt;/i&gt;&lt;/b&gt;&lt;br&gt;&lt;b&gt;class&lt;/b&gt;:&amp;nbsp;&lt;i&gt;OAuth2LoginAuthenticationFilter&lt;/i&gt;&lt;br&gt;&lt;b&gt;method&lt;/b&gt;:&amp;nbsp;&lt;i&gt;attemptAuthentication&lt;/i&gt;&lt;div&gt;&lt;br&gt;&lt;/div&gt;" style="rounded=0;whiteSpace=wrap;html=1;" vertex="1" parent="1">
          <mxGeometry x="520" y="90" width="210" height="60" as="geometry" />
        </mxCell>
        <mxCell id="qcht7zD_EGoAaBPKeqV6-12" value="" style="endArrow=none;html=1;rounded=0;entryX=0.5;entryY=1;entryDx=0;entryDy=0;" edge="1" parent="1">
          <mxGeometry width="50" height="50" relative="1" as="geometry">
            <mxPoint x="630" y="440" as="sourcePoint" />
            <mxPoint x="630" y="150" as="targetPoint" />
          </mxGeometry>
        </mxCell>
        <mxCell id="qcht7zD_EGoAaBPKeqV6-13" value="" style="endArrow=classic;html=1;rounded=0;" edge="1" parent="1">
          <mxGeometry width="50" height="50" relative="1" as="geometry">
            <mxPoint x="420" y="231" as="sourcePoint" />
            <mxPoint x="630" y="231" as="targetPoint" />
          </mxGeometry>
        </mxCell>
        <mxCell id="qcht7zD_EGoAaBPKeqV6-14" value="&lt;b&gt;send Authorization code&lt;/b&gt;" style="text;html=1;align=center;verticalAlign=middle;whiteSpace=wrap;rounded=0;" vertex="1" parent="1">
          <mxGeometry x="460" y="200" width="120" height="30" as="geometry" />
        </mxCell>
        <mxCell id="qcht7zD_EGoAaBPKeqV6-15" value="&lt;b&gt;&lt;i&gt;coach-app&lt;/i&gt;&lt;/b&gt;&lt;br&gt;&lt;b&gt;class&lt;/b&gt;: &lt;i&gt;ProviderManager&lt;/i&gt;&lt;br&gt;&lt;b&gt;method&lt;/b&gt;: &lt;i&gt;authenticate&lt;/i&gt;&lt;br&gt;&lt;div&gt;&lt;br&gt;&lt;/div&gt;" style="rounded=0;whiteSpace=wrap;html=1;" vertex="1" parent="1">
          <mxGeometry x="770" y="90" width="150" height="60" as="geometry" />
        </mxCell>
        <mxCell id="qcht7zD_EGoAaBPKeqV6-16" value="" style="endArrow=none;html=1;rounded=0;entryX=0.5;entryY=1;entryDx=0;entryDy=0;" edge="1" parent="1">
          <mxGeometry width="50" height="50" relative="1" as="geometry">
            <mxPoint x="840" y="440" as="sourcePoint" />
            <mxPoint x="840" y="150" as="targetPoint" />
          </mxGeometry>
        </mxCell>
        <mxCell id="qcht7zD_EGoAaBPKeqV6-17" value="" style="endArrow=classic;html=1;rounded=0;" edge="1" parent="1">
          <mxGeometry width="50" height="50" relative="1" as="geometry">
            <mxPoint x="630" y="231" as="sourcePoint" />
            <mxPoint x="840" y="231" as="targetPoint" />
          </mxGeometry>
        </mxCell>
        <mxCell id="qcht7zD_EGoAaBPKeqV6-18" value="&lt;b&gt;authenticate the Authorization code&lt;/b&gt;" style="text;html=1;align=center;verticalAlign=middle;whiteSpace=wrap;rounded=0;" vertex="1" parent="1">
          <mxGeometry x="670" y="195" width="120" height="30" as="geometry" />
        </mxCell>
        <mxCell id="qcht7zD_EGoAaBPKeqV6-19" value="&lt;b&gt;&lt;i&gt;coach-app&lt;/i&gt;&lt;/b&gt;&lt;br&gt;&lt;b&gt;class&lt;/b&gt;:&amp;nbsp;OidcAuthorizationCodeAuthenticationProvider&lt;br&gt;&lt;b&gt;method&lt;/b&gt;:&amp;nbsp;authenticate&lt;div&gt;&lt;br&gt;&lt;/div&gt;" style="rounded=0;whiteSpace=wrap;html=1;" vertex="1" parent="1">
          <mxGeometry x="960" y="90" width="280" height="60" as="geometry" />
        </mxCell>
        <mxCell id="qcht7zD_EGoAaBPKeqV6-20" value="" style="endArrow=none;html=1;rounded=0;entryX=0.5;entryY=1;entryDx=0;entryDy=0;" edge="1" parent="1">
          <mxGeometry width="50" height="50" relative="1" as="geometry">
            <mxPoint x="1074.5" y="440" as="sourcePoint" />
            <mxPoint x="1074.5" y="150" as="targetPoint" />
          </mxGeometry>
        </mxCell>
        <mxCell id="qcht7zD_EGoAaBPKeqV6-21" value="" style="endArrow=classic;html=1;rounded=0;" edge="1" parent="1">
          <mxGeometry width="50" height="50" relative="1" as="geometry">
            <mxPoint x="842" y="231" as="sourcePoint" />
            <mxPoint x="1072" y="231" as="targetPoint" />
          </mxGeometry>
        </mxCell>
        <mxCell id="qcht7zD_EGoAaBPKeqV6-22" value="&lt;b&gt;authenticate the Authorization code&lt;/b&gt;" style="text;html=1;align=center;verticalAlign=middle;whiteSpace=wrap;rounded=0;" vertex="1" parent="1">
          <mxGeometry x="884" y="195" width="140" height="30" as="geometry" />
        </mxCell>
        <mxCell id="qcht7zD_EGoAaBPKeqV6-23" value="" style="endArrow=classic;html=1;rounded=0;jumpStyle=arc;" edge="1" parent="1">
          <mxGeometry width="50" height="50" relative="1" as="geometry">
            <mxPoint x="1071" y="280" as="sourcePoint" />
            <mxPoint x="421" y="280" as="targetPoint" />
          </mxGeometry>
        </mxCell>
        <mxCell id="qcht7zD_EGoAaBPKeqV6-24" value="&lt;b&gt;exchange the Authorization code to fetch the Access Token using URL -&amp;nbsp;http://localhost:8180/realms/sso/protocol/openid-connect/token&lt;/b&gt;" style="text;html=1;align=center;verticalAlign=middle;whiteSpace=wrap;rounded=0;" vertex="1" parent="1">
          <mxGeometry x="564" y="247" width="406" height="30" as="geometry" />
        </mxCell>
        <mxCell id="qcht7zD_EGoAaBPKeqV6-25" value="" style="endArrow=classic;html=1;rounded=0;" edge="1" parent="1">
          <mxGeometry width="50" height="50" relative="1" as="geometry">
            <mxPoint x="423" y="320" as="sourcePoint" />
            <mxPoint x="1073" y="320" as="targetPoint" />
          </mxGeometry>
        </mxCell>
        <mxCell id="qcht7zD_EGoAaBPKeqV6-26" value="&lt;b&gt;send Access Token &amp;amp; Refresh Token &amp;amp; ID Token&lt;/b&gt;" style="text;html=1;align=center;verticalAlign=middle;whiteSpace=wrap;rounded=0;" vertex="1" parent="1">
          <mxGeometry x="592" y="295" width="276" height="30" as="geometry" />
        </mxCell>
        <mxCell id="qcht7zD_EGoAaBPKeqV6-27" value="&lt;b&gt;details in Access Token can be reviwed from Jwt.io&lt;/b&gt;" style="text;html=1;align=center;verticalAlign=middle;whiteSpace=wrap;rounded=0;" vertex="1" parent="1">
          <mxGeometry x="1160" y="220" width="150" height="30" as="geometry" />
        </mxCell>
        <mxCell id="qcht7zD_EGoAaBPKeqV6-28" value="&lt;b&gt;&lt;i&gt;coach-app&lt;/i&gt;&lt;/b&gt;&lt;br&gt;&lt;b&gt;class&lt;/b&gt;:&amp;nbsp;KeycloakSecurityConfig&lt;br&gt;&lt;b&gt;method&lt;/b&gt;:&amp;nbsp;userAuthoritiesMapperForKeycloak&lt;div&gt;&lt;br&gt;&lt;/div&gt;" style="rounded=0;whiteSpace=wrap;html=1;" vertex="1" parent="1">
          <mxGeometry x="1280" y="90" width="240" height="60" as="geometry" />
        </mxCell>
        <mxCell id="qcht7zD_EGoAaBPKeqV6-29" value="" style="endArrow=none;html=1;rounded=0;entryX=0.5;entryY=1;entryDx=0;entryDy=0;" edge="1" parent="1">
          <mxGeometry width="50" height="50" relative="1" as="geometry">
            <mxPoint x="1399.5" y="440" as="sourcePoint" />
            <mxPoint x="1399.5" y="150" as="targetPoint" />
          </mxGeometry>
        </mxCell>
        <mxCell id="qcht7zD_EGoAaBPKeqV6-30" value="" style="endArrow=classic;html=1;rounded=0;exitX=-0.027;exitY=1.233;exitDx=0;exitDy=0;exitPerimeter=0;" edge="1" parent="1">
          <mxGeometry width="50" height="50" relative="1" as="geometry">
            <mxPoint x="1074.95" y="319.99" as="sourcePoint" />
            <mxPoint x="1398" y="320" as="targetPoint" />
          </mxGeometry>
        </mxCell>
        <mxCell id="qcht7zD_EGoAaBPKeqV6-31" value="&lt;b&gt;collect the ROLE details from Access Token &lt;br&gt;and set to SimpleGrantedAuthority object&lt;/b&gt;" style="text;html=1;align=center;verticalAlign=middle;resizable=0;points=[];autosize=1;strokeColor=none;fillColor=none;" vertex="1" parent="1">
          <mxGeometry x="1100" y="283" width="270" height="40" as="geometry" />
        </mxCell>
        <mxCell id="qcht7zD_EGoAaBPKeqV6-32" value="" style="endArrow=classic;html=1;rounded=0;jumpStyle=arc;" edge="1" parent="1">
          <mxGeometry width="50" height="50" relative="1" as="geometry">
            <mxPoint x="1400" y="360" as="sourcePoint" />
            <mxPoint x="630" y="360" as="targetPoint" />
          </mxGeometry>
        </mxCell>
        <mxCell id="qcht7zD_EGoAaBPKeqV6-33" value="&lt;b&gt;set authenticated as true and other details on Authentication object&lt;/b&gt;" style="text;html=1;align=center;verticalAlign=middle;whiteSpace=wrap;rounded=0;" vertex="1" parent="1">
          <mxGeometry x="792" y="337" width="388" height="30" as="geometry" />
        </mxCell>
        <mxCell id="qcht7zD_EGoAaBPKeqV6-34" value="&lt;b&gt;&lt;i&gt;coach-app&lt;br&gt;Home Page&lt;/i&gt;&lt;/b&gt;&lt;br&gt;&lt;div&gt;&lt;br&gt;&lt;/div&gt;" style="rounded=0;whiteSpace=wrap;html=1;" vertex="1" parent="1">
          <mxGeometry x="1560" y="90" width="110" height="60" as="geometry" />
        </mxCell>
        <mxCell id="qcht7zD_EGoAaBPKeqV6-35" value="" style="endArrow=none;html=1;rounded=0;entryX=0.5;entryY=1;entryDx=0;entryDy=0;" edge="1" parent="1">
          <mxGeometry width="50" height="50" relative="1" as="geometry">
            <mxPoint x="1611.5" y="440" as="sourcePoint" />
            <mxPoint x="1611.5" y="150" as="targetPoint" />
          </mxGeometry>
        </mxCell>
        <mxCell id="qcht7zD_EGoAaBPKeqV6-36" value="" style="endArrow=classic;html=1;rounded=0;jumpStyle=arc;" edge="1" parent="1">
          <mxGeometry width="50" height="50" relative="1" as="geometry">
            <mxPoint x="630" y="400" as="sourcePoint" />
            <mxPoint x="1610" y="400" as="targetPoint" />
          </mxGeometry>
        </mxCell>
        <mxCell id="qcht7zD_EGoAaBPKeqV6-37" value="&lt;b&gt;redirect to Home Page after successful authentication&lt;/b&gt;" style="text;html=1;align=center;verticalAlign=middle;whiteSpace=wrap;rounded=0;" vertex="1" parent="1">
          <mxGeometry x="784" y="373" width="380" height="30" as="geometry" />
        </mxCell>
      </root>
    </mxGraphModel>
  </diagram>
</mxfile>
